<?xml version="1.0" encoding="UTF-8"?>
<!-- Created with Inkscape (http://www.inkscape.org/) -->
<svg version="1.1" viewBox="0 0 32 32" xmlns="http://www.w3.org/2000/svg">
 <path d="m22.211 1.9023c-0.43102 0.027508-0.61547 1.7875-1.0098 1.9824-0.40055 0.19805-1.9533-0.75656-2.2012-0.38477s1.2299 1.4389 1.2012 1.8848-1.6316 1.3123-1.4336 1.7129c0.19805 0.40055 1.8606-0.34552 2.2324-0.097656s0.32166 2.0689 0.76758 2.0977c0.44592 0.028758 0.6307-1.7844 1.0312-1.9824 0.40055-0.19805 1.9533 0.75656 2.2012 0.38477s-1.2299-1.4389-1.2012-1.8848 1.6316-1.3123 1.4336-1.7129c-0.19805-0.40055-1.8606 0.34552-2.2324 0.097656s-0.32166-2.0689-0.76758-2.0977c-0.006968-4.494e-4 -0.014643-4.367e-4 -0.021484 0zm-13.01 1.2988c-3.3053 1e-7 -11.314 11.313-1.4141 21.213 9.8995 9.8995 21.213 1.8912 21.213-1.4141-9e-6 -3.3052-6.3646-2.1205-12.021-7.7773-5.6569-5.6569-4.4721-12.021-7.7773-12.021zm17.127 8.4414c-0.25848 0.016496-0.36902 1.0725-0.60547 1.1895-0.2402 0.11877-1.1717-0.45343-1.3203-0.23047-0.14864 0.22296 0.73795 0.8615 0.7207 1.1289-0.017246 0.2674-0.97814 0.78909-0.85938 1.0293 0.11877 0.2402 1.1149-0.20918 1.3379-0.060547 0.22296 0.14864 0.19353 1.2425 0.46094 1.2598 0.26741 0.017246 0.37698-1.0707 0.61719-1.1895 0.2402-0.11877 1.1717 0.45343 1.3203 0.23047s-0.73795-0.8615-0.7207-1.1289c0.017246-0.26741 0.97814-0.78909 0.85938-1.0293-0.11877-0.2402-1.1149 0.20723-1.3379 0.058594-0.22296-0.14864-0.19353-1.2406-0.46094-1.2578-0.004178-2.69e-4 -0.007616-2.62e-4 -0.011719 0z" fill="#74ccff" style="paint-order:markers stroke fill"/>
</svg>
