<?xml version="1.0" encoding="UTF-8"?>
<!-- Created with Inkscape (http://www.inkscape.org/) -->
<svg version="1.1" viewBox="0 0 32 32" xmlns="http://www.w3.org/2000/svg">
 <path d="m18.98 1.3164c-0.91526 0.055766-1.5232 2.649-2.2148 4.7129a10 10 0 0 0-0.76562-0.029297 10 10 0 0 0-2.8223 0.40625c-1.16-1.9672-2.3519-4.5223-3.2793-4.1094-0.92737 0.41289 0.17557 3.0072 0.86133 5.1855a10 10 0 0 0-2.6816 2.416c-2.0947-0.9097-4.5608-2.2776-5.0684-1.3984s1.909 2.3302 3.7441 3.6895a10 10 0 0 0-0.75 3.5312c-2.2294 0.49529-5.028 0.83809-4.9219 1.8477 0.10611 1.0096 2.9156 0.76225 5.1992 0.7832a10 10 0 0 0 1.4668 3.2969c-1.5125 1.7111-3.5738 3.6343-2.8945 4.3887 0.67925 0.75439 2.8062-1.0965 4.666-2.4219a10 10 0 0 0 3.125 1.8047c-0.21787 2.2733-0.75662 5.0409 0.23633 5.252 0.99295 0.21106 1.6279-2.5358 2.3535-4.7012a10 10 0 0 0 0.76562 0.029297 10 10 0 0 0 2.8223-0.40625c1.16 1.9672 2.3519 4.5223 3.2793 4.1094 0.92737-0.41289-0.17557-3.0072-0.86133-5.1855a10 10 0 0 0 2.6816-2.416c2.0947 0.9097 4.5608 2.2776 5.0684 1.3984s-1.909-2.3302-3.7441-3.6895a10 10 0 0 0 0.75-3.5312c2.2294-0.49529 5.028-0.83809 4.9219-1.8477-0.10611-1.0096-2.9156-0.76225-5.1992-0.7832a10 10 0 0 0-1.4668-3.2969c1.5125-1.7111 3.5738-3.6343 2.8945-4.3887-0.67925-0.75439-2.8062 1.0965-4.666 2.4219a10 10 0 0 0-3.125-1.8047c0.21787-2.2733 0.75662-5.0409-0.23633-5.252-0.046545-0.0098933-0.093659-0.014461-0.13867-0.011719z" fill="#ffd86b" style="paint-order:markers stroke fill"/>
</svg>
